<svg id="svg" version="1.1" xmlns="http://www.w3.org/2000/svg" xmlns:xlink="http://www.w3.org/1999/xlink" width="400" height="400" viewBox="0, 0, 400,400"><g id="svgg"><path id="path0" d="M259.204 141.398 L 183.800 216.796 183.600 246.636 L 183.400 276.476 182.200 277.436 L 181.000 278.396 162.513 278.398 L 144.027 278.400 142.613 276.987 L 141.200 275.573 141.200 267.487 L 141.200 259.402 104.375 296.201 C 84.121 316.440,67.192 333.490,66.756 334.088 L 65.962 335.177 68.574 337.788 C 70.010 339.225,71.349 340.400,71.550 340.400 C 71.750 340.400,72.018 340.670,72.145 341.000 C 72.271 341.330,72.661 341.600,73.011 341.600 C 73.361 341.600,73.565 341.735,73.466 341.900 C 73.229 342.291,74.240 343.226,74.557 342.909 C 74.691 342.776,74.800 342.890,74.800 343.162 C 74.800 343.889,75.992 345.022,76.027 344.329 C 76.042 344.038,76.244 344.193,76.477 344.674 C 76.709 345.155,77.462 345.826,78.150 346.165 C 78.837 346.504,79.167 346.786,78.882 346.791 C 78.197 346.803,80.197 348.800,80.894 348.800 C 81.185 348.800,81.683 349.160,82.000 349.600 C 82.317 350.040,82.817 350.400,83.112 350.400 C 83.406 350.400,83.553 350.553,83.437 350.740 C 83.322 350.927,83.716 351.332,84.314 351.640 C 84.911 351.948,85.603 352.380,85.851 352.600 C 86.099 352.820,86.706 353.270,87.200 353.600 C 87.694 353.930,88.325 354.416,88.601 354.681 C 88.878 354.945,89.216 355.050,89.352 354.914 C 89.489 354.778,89.600 354.967,89.600 355.333 C 89.600 355.700,89.894 356.000,90.253 356.000 C 90.612 356.000,91.229 356.372,91.623 356.826 C 92.017 357.281,92.439 357.647,92.562 357.640 C 92.992 357.616,95.195 359.004,95.197 359.300 C 95.199 359.465,95.470 359.600,95.800 359.600 C 96.130 359.600,96.400 359.780,96.400 360.000 C 96.400 360.220,96.760 360.400,97.200 360.400 C 97.640 360.400,98.000 360.580,98.000 360.800 C 98.000 361.020,98.281 361.200,98.624 361.200 C 98.967 361.200,99.136 361.380,99.000 361.600 C 98.864 361.820,99.084 362.000,99.488 362.000 C 99.893 362.000,100.483 362.360,100.800 362.800 C 101.117 363.240,101.697 363.600,102.088 363.600 C 102.480 363.600,102.800 363.780,102.800 364.000 C 102.800 364.220,103.250 364.400,103.800 364.400 C 104.350 364.400,104.800 364.580,104.800 364.800 C 104.800 365.020,105.030 365.200,105.312 365.200 C 105.593 365.200,106.083 365.560,106.400 366.000 C 106.717 366.440,107.297 366.800,107.688 366.800 C 108.080 366.800,108.400 366.980,108.400 367.200 C 108.400 367.420,108.771 367.600,109.224 367.600 C 109.677 367.600,109.936 367.780,109.800 368.000 C 109.659 368.228,110.004 368.400,110.600 368.400 C 111.196 368.400,111.541 368.572,111.400 368.800 C 111.264 369.020,111.523 369.200,111.976 369.200 C 112.429 369.200,112.800 369.380,112.800 369.600 C 112.800 369.820,113.250 370.000,113.800 370.000 C 114.350 370.000,114.801 370.135,114.803 370.300 C 114.807 370.665,116.749 371.600,117.503 371.600 C 117.802 371.600,117.936 371.780,117.800 372.000 C 117.664 372.220,117.923 372.400,118.376 372.400 C 118.829 372.400,119.200 372.580,119.200 372.800 C 119.200 373.020,119.560 373.200,120.000 373.200 C 120.440 373.200,120.800 373.399,120.800 373.643 C 120.800 373.886,121.065 373.984,121.388 373.860 C 121.712 373.736,122.257 373.914,122.599 374.257 C 122.942 374.599,123.937 374.975,124.811 375.092 C 125.685 375.209,126.400 375.462,126.400 375.653 C 126.400 375.844,126.670 376.000,127.000 376.000 C 127.330 376.000,127.600 376.180,127.600 376.400 C 127.600 376.620,128.196 376.800,128.925 376.800 C 129.696 376.800,130.608 377.134,131.108 377.600 C 131.580 378.040,132.413 378.400,132.960 378.400 C 133.506 378.400,134.064 378.580,134.200 378.800 C 134.336 379.020,134.987 379.200,135.647 379.200 C 136.345 379.200,136.744 379.367,136.600 379.600 C 136.456 379.833,136.863 380.000,137.576 380.000 C 138.249 380.000,138.800 380.180,138.800 380.400 C 138.800 380.620,139.340 380.800,140.000 380.800 C 140.660 380.800,141.200 380.980,141.200 381.200 C 141.200 381.420,141.639 381.600,142.176 381.600 C 142.713 381.600,143.264 381.780,143.400 382.000 C 143.536 382.220,144.087 382.400,144.624 382.400 C 145.161 382.400,145.600 382.580,145.600 382.800 C 145.600 383.020,146.110 383.200,146.733 383.200 C 147.357 383.200,148.002 383.335,148.167 383.500 C 148.506 383.839,148.710 383.880,150.424 383.950 C 151.097 383.977,151.558 384.144,151.449 384.320 C 151.341 384.496,151.910 384.684,152.714 384.738 C 153.518 384.793,154.294 385.029,154.439 385.264 C 154.613 385.544,154.777 385.504,154.920 385.145 C 155.074 384.758,155.146 384.745,155.168 385.100 C 155.186 385.382,155.724 385.600,156.400 385.600 C 157.060 385.600,157.600 385.780,157.600 386.000 C 157.600 386.220,158.410 386.400,159.400 386.400 C 160.390 386.400,161.200 386.580,161.200 386.800 C 161.200 387.024,162.385 387.212,163.900 387.228 C 165.779 387.248,166.357 387.361,165.800 387.600 C 165.244 387.839,165.831 387.952,167.724 387.972 C 169.222 387.987,170.356 388.148,170.244 388.329 C 170.132 388.510,171.236 388.691,172.698 388.731 C 174.160 388.771,175.456 388.959,175.578 389.148 C 175.700 389.337,177.326 389.526,179.191 389.569 C 181.055 389.611,182.681 389.808,182.804 390.006 C 183.112 390.504,218.000 390.482,218.000 389.984 C 218.000 389.767,219.556 389.600,221.567 389.600 C 223.528 389.600,225.193 389.432,225.267 389.228 C 225.340 389.023,226.601 388.803,228.068 388.738 C 229.536 388.674,230.650 388.481,230.545 388.311 C 230.439 388.140,231.533 388.000,232.976 388.000 C 234.459 388.000,235.600 387.826,235.600 387.600 C 235.600 387.380,236.500 387.200,237.600 387.200 C 238.700 387.200,239.600 387.020,239.600 386.800 C 239.600 386.580,240.410 386.400,241.400 386.400 C 242.390 386.400,243.200 386.220,243.200 386.000 C 243.200 385.780,243.740 385.600,244.400 385.600 C 245.090 385.600,245.603 385.388,245.606 385.100 C 245.611 384.734,245.705 384.746,245.958 385.145 C 246.192 385.515,246.352 385.544,246.454 385.237 C 246.538 384.987,247.279 384.758,248.103 384.727 C 248.926 384.696,249.600 384.520,249.600 384.335 C 249.600 384.151,250.219 384.000,250.976 384.000 C 251.733 384.000,252.464 383.820,252.600 383.600 C 252.736 383.380,253.377 383.200,254.024 383.200 C 254.671 383.200,255.200 383.020,255.200 382.800 C 255.200 382.580,255.740 382.400,256.400 382.400 C 257.060 382.400,257.600 382.220,257.600 382.000 C 257.600 381.780,258.050 381.600,258.600 381.600 C 259.150 381.600,259.600 381.420,259.600 381.200 C 259.600 380.980,260.140 380.800,260.800 380.800 C 261.460 380.800,262.000 380.620,262.000 380.400 C 262.000 380.180,262.439 380.000,262.976 380.000 C 263.513 380.000,264.064 379.820,264.200 379.600 C 264.336 379.380,264.977 379.200,265.624 379.200 C 266.271 379.200,266.800 379.020,266.800 378.800 C 266.800 378.580,267.351 378.400,268.024 378.400 C 268.737 378.400,269.144 378.233,269.000 378.000 C 268.860 377.773,269.196 377.600,269.776 377.600 C 270.339 377.600,270.800 377.420,270.800 377.200 C 270.800 376.980,271.340 376.800,272.000 376.800 C 272.660 376.800,273.200 376.664,273.200 376.498 C 273.200 376.083,275.090 375.305,276.872 374.985 C 277.682 374.840,278.440 374.472,278.557 374.167 C 278.685 373.834,279.040 373.717,279.450 373.875 C 279.911 374.052,280.038 373.985,279.842 373.668 C 279.650 373.357,279.897 373.200,280.576 373.200 C 281.139 373.200,281.601 373.065,281.603 372.900 C 281.607 372.535,283.549 371.600,284.303 371.600 C 284.602 371.600,284.736 371.420,284.600 371.200 C 284.460 370.973,284.796 370.800,285.376 370.800 C 285.939 370.800,286.400 370.664,286.400 370.498 C 286.400 370.331,286.985 369.943,287.700 369.635 C 288.415 369.327,289.478 368.743,290.062 368.337 C 290.646 367.932,291.396 367.600,291.728 367.600 C 292.061 367.600,292.393 367.434,292.467 367.230 C 292.540 367.027,292.870 366.802,293.200 366.730 C 293.530 366.659,294.091 366.285,294.447 365.900 C 294.803 365.515,295.388 365.200,295.747 365.200 C 296.106 365.200,296.400 365.020,296.400 364.800 C 296.400 364.580,296.760 364.400,297.200 364.400 C 297.640 364.400,298.000 364.220,298.000 364.000 C 298.000 363.780,298.341 363.600,298.757 363.600 C 299.174 363.600,299.618 363.330,299.745 362.999 C 299.872 362.669,300.611 362.096,301.388 361.725 C 302.164 361.355,302.800 360.905,302.800 360.726 C 302.800 360.547,303.160 360.400,303.600 360.400 C 304.040 360.400,304.400 360.220,304.400 360.000 C 304.400 359.780,304.670 359.600,305.000 359.600 C 305.330 359.600,305.600 359.461,305.600 359.291 C 305.600 359.121,306.275 358.628,307.100 358.196 C 307.925 357.764,308.891 357.094,309.247 356.706 C 309.603 356.317,310.188 356.000,310.547 356.000 C 310.906 356.000,311.200 355.732,311.200 355.405 C 311.200 355.078,311.830 354.548,312.600 354.226 C 313.370 353.904,314.000 353.452,314.000 353.220 C 314.000 352.989,314.281 352.800,314.624 352.800 C 314.967 352.800,315.136 352.620,315.000 352.400 C 314.864 352.180,315.078 351.994,315.476 351.987 C 316.360 351.972,317.687 351.020,317.327 350.660 C 317.184 350.517,317.301 350.400,317.586 350.400 C 317.872 350.400,318.397 350.084,318.753 349.697 C 319.109 349.311,319.895 348.740,320.500 348.430 C 321.105 348.119,321.600 347.615,321.600 347.309 C 321.600 347.003,321.741 346.840,321.913 346.947 C 322.086 347.053,322.646 346.614,323.158 345.970 C 323.671 345.327,324.263 344.800,324.474 344.800 C 324.982 344.800,325.780 343.970,326.110 343.100 C 326.256 342.715,326.568 342.400,326.804 342.400 C 327.417 342.400,327.735 342.107,334.921 334.921 C 342.022 327.820,342.121 327.713,342.508 326.700 C 342.655 326.315,342.973 326.000,343.216 326.000 C 343.759 326.000,344.800 324.996,344.800 324.474 C 344.800 324.263,345.327 323.671,345.970 323.158 C 346.614 322.646,347.053 322.086,346.947 321.913 C 346.840 321.741,347.003 321.600,347.309 321.600 C 347.615 321.600,348.119 321.105,348.430 320.500 C 348.740 319.895,349.311 319.109,349.697 318.753 C 350.084 318.397,350.400 317.872,350.400 317.586 C 350.400 317.301,350.517 317.184,350.660 317.327 C 351.020 317.687,351.972 316.360,351.987 315.476 C 351.994 315.078,352.180 314.864,352.400 315.000 C 352.620 315.136,352.800 314.967,352.800 314.624 C 352.800 314.281,352.989 314.000,353.220 314.000 C 353.452 314.000,353.904 313.370,354.226 312.600 C 354.548 311.830,355.078 311.200,355.405 311.200 C 355.732 311.200,356.000 310.906,356.000 310.547 C 356.000 310.188,356.317 309.603,356.706 309.247 C 357.094 308.891,357.764 307.925,358.196 307.100 C 358.628 306.275,359.121 305.600,359.291 305.600 C 359.461 305.600,359.600 305.330,359.600 305.000 C 359.600 304.670,359.780 304.400,360.000 304.400 C 360.220 304.400,360.400 304.040,360.400 303.600 C 360.400 303.160,360.547 302.800,360.726 302.800 C 360.905 302.800,361.355 302.164,361.725 301.388 C 362.096 300.611,362.669 299.872,362.999 299.745 C 363.330 299.618,363.600 299.174,363.600 298.757 C 363.600 298.341,363.780 298.000,364.000 298.000 C 364.220 298.000,364.400 297.640,364.400 297.200 C 364.400 296.760,364.580 296.400,364.800 296.400 C 365.020 296.400,365.200 296.106,365.200 295.747 C 365.200 295.388,365.515 294.803,365.900 294.447 C 366.285 294.091,366.658 293.530,366.730 293.200 C 366.801 292.870,367.026 292.540,367.230 292.467 C 367.433 292.393,367.600 292.061,367.600 291.728 C 367.600 291.396,367.932 290.646,368.337 290.062 C 368.743 289.478,369.327 288.415,369.635 287.700 C 369.943 286.985,370.331 286.400,370.498 286.400 C 370.664 286.400,370.800 285.939,370.800 285.376 C 370.800 284.796,370.973 284.460,371.200 284.600 C 371.420 284.736,371.600 284.602,371.600 284.303 C 371.600 283.549,372.535 281.607,372.900 281.603 C 373.065 281.601,373.200 281.139,373.200 280.576 C 373.200 279.996,373.373 279.660,373.600 279.800 C 373.820 279.936,374.000 279.677,374.000 279.224 C 374.000 278.771,374.160 278.400,374.355 278.400 C 374.551 278.400,374.832 277.725,374.980 276.900 C 375.305 275.094,376.081 273.200,376.498 273.200 C 376.664 273.200,376.800 272.660,376.800 272.000 C 376.800 271.340,376.980 270.800,377.200 270.800 C 377.420 270.800,377.600 270.339,377.600 269.776 C 377.600 269.196,377.773 268.860,378.000 269.000 C 378.233 269.144,378.400 268.737,378.400 268.024 C 378.400 267.351,378.580 266.800,378.800 266.800 C 379.020 266.800,379.200 266.271,379.200 265.624 C 379.200 264.977,379.380 264.336,379.600 264.200 C 379.820 264.064,380.000 263.513,380.000 262.976 C 380.000 262.439,380.180 262.000,380.400 262.000 C 380.620 262.000,380.800 261.460,380.800 260.800 C 380.800 260.140,380.980 259.600,381.200 259.600 C 381.420 259.600,381.600 259.150,381.600 258.600 C 381.600 258.050,381.780 257.600,382.000 257.600 C 382.220 257.600,382.400 257.060,382.400 256.400 C 382.400 255.740,382.580 255.200,382.800 255.200 C 383.020 255.200,383.200 254.671,383.200 254.024 C 383.200 253.377,383.380 252.736,383.600 252.600 C 383.820 252.464,384.000 251.733,384.000 250.976 C 384.000 250.219,384.151 249.600,384.335 249.600 C 384.520 249.600,384.695 248.938,384.726 248.129 C 384.756 247.321,384.986 246.533,385.236 246.378 C 385.559 246.178,385.533 246.034,385.145 245.880 C 384.758 245.726,384.745 245.654,385.100 245.632 C 385.382 245.614,385.600 245.076,385.600 244.400 C 385.600 243.740,385.780 243.200,386.000 243.200 C 386.220 243.200,386.400 242.390,386.400 241.400 C 386.400 240.410,386.580 239.600,386.800 239.600 C 387.020 239.600,387.200 238.700,387.200 237.600 C 387.200 236.500,387.380 235.600,387.600 235.600 C 387.826 235.600,388.000 234.459,388.000 232.976 C 388.000 231.533,388.140 230.439,388.311 230.545 C 388.481 230.650,388.674 229.536,388.738 228.068 C 388.803 226.601,389.023 225.340,389.228 225.267 C 389.432 225.193,389.600 223.528,389.600 221.567 C 389.600 219.556,389.767 218.000,389.984 218.000 C 390.482 218.000,390.504 183.112,390.006 182.804 C 389.808 182.681,389.611 181.055,389.569 179.191 C 389.526 177.326,389.334 175.698,389.142 175.574 C 388.950 175.450,388.775 174.145,388.753 172.674 C 388.731 171.203,388.552 170.000,388.356 170.000 C 388.160 170.000,387.987 168.875,387.972 167.500 C 387.952 165.733,387.843 165.235,387.600 165.800 C 387.361 166.357,387.248 165.779,387.228 163.900 C 387.212 162.385,387.024 161.200,386.800 161.200 C 386.580 161.200,386.397 160.345,386.394 159.300 C 386.389 157.926,386.280 157.566,386.000 158.000 C 385.716 158.439,385.611 158.145,385.606 156.900 C 385.602 155.813,385.420 155.198,385.100 155.194 C 384.767 155.190,384.800 155.058,385.200 154.800 C 385.600 154.542,385.633 154.410,385.300 154.406 C 384.980 154.402,384.798 153.787,384.794 152.700 C 384.789 151.455,384.684 151.161,384.400 151.600 C 384.109 152.051,383.998 151.826,383.956 150.700 C 383.881 148.694,383.849 148.516,383.500 148.167 C 383.335 148.002,383.200 147.357,383.200 146.733 C 383.200 146.110,383.020 145.600,382.800 145.600 C 382.580 145.600,382.400 145.161,382.400 144.624 C 382.400 144.087,382.220 143.536,382.000 143.400 C 381.780 143.264,381.600 142.713,381.600 142.176 C 381.600 141.639,381.420 141.200,381.200 141.200 C 380.980 141.200,380.800 140.660,380.800 140.000 C 380.800 139.340,380.620 138.800,380.400 138.800 C 380.180 138.800,380.000 138.249,380.000 137.576 C 380.000 136.863,379.833 136.456,379.600 136.600 C 379.367 136.744,379.200 136.345,379.200 135.647 C 379.200 134.987,379.020 134.336,378.800 134.200 C 378.580 134.064,378.400 133.506,378.400 132.960 C 378.400 132.413,378.040 131.580,377.600 131.108 C 377.134 130.608,376.800 129.696,376.800 128.925 C 376.800 128.196,376.620 127.600,376.400 127.600 C 376.180 127.600,376.000 127.330,376.000 127.000 C 376.000 126.670,375.844 126.400,375.653 126.400 C 375.462 126.400,375.209 125.685,375.092 124.811 C 374.975 123.937,374.599 122.942,374.257 122.599 C 373.914 122.257,373.736 121.712,373.860 121.388 C 373.984 121.065,373.886 120.800,373.643 120.800 C 373.399 120.800,373.200 120.440,373.200 120.000 C 373.200 119.560,373.020 119.200,372.800 119.200 C 372.580 119.200,372.400 118.829,372.400 118.376 C 372.400 117.923,372.220 117.664,372.000 117.800 C 371.780 117.936,371.600 117.802,371.600 117.503 C 371.600 116.749,370.665 114.807,370.300 114.803 C 370.135 114.801,370.000 114.350,370.000 113.800 C 370.000 113.250,369.820 112.800,369.600 112.800 C 369.380 112.800,369.200 112.429,369.200 111.976 C 369.200 111.523,369.020 111.264,368.800 111.400 C 368.572 111.541,368.400 111.196,368.400 110.600 C 368.400 110.004,368.228 109.659,368.000 109.800 C 367.780 109.936,367.600 109.677,367.600 109.224 C 367.600 108.771,367.420 108.400,367.200 108.400 C 366.980 108.400,366.800 108.083,366.800 107.696 C 366.800 107.309,366.440 106.768,366.000 106.493 C 365.560 106.218,365.200 105.725,365.200 105.397 C 365.200 105.068,365.020 104.800,364.800 104.800 C 364.580 104.800,364.400 104.350,364.400 103.800 C 364.400 103.250,364.220 102.800,364.000 102.800 C 363.780 102.800,363.600 102.480,363.600 102.088 C 363.600 101.697,363.240 101.117,362.800 100.800 C 362.360 100.483,362.000 99.893,362.000 99.488 C 362.000 99.084,361.820 98.864,361.600 99.000 C 361.380 99.136,361.200 98.967,361.200 98.624 C 361.200 98.281,361.020 98.000,360.800 98.000 C 360.580 98.000,360.400 97.640,360.400 97.200 C 360.400 96.760,360.220 96.400,360.000 96.400 C 359.780 96.400,359.600 96.130,359.600 95.800 C 359.600 95.470,359.465 95.199,359.300 95.197 C 359.007 95.195,357.458 92.728,357.587 92.470 C 357.623 92.398,357.281 92.017,356.826 91.623 C 356.372 91.229,356.000 90.612,356.000 90.253 C 356.000 89.894,355.700 89.600,355.333 89.600 C 354.967 89.600,354.778 89.489,354.914 89.352 C 355.050 89.216,354.945 88.878,354.681 88.601 C 354.416 88.325,353.930 87.694,353.600 87.200 C 353.270 86.706,352.820 86.099,352.600 85.851 C 352.380 85.603,351.948 84.911,351.640 84.314 C 351.332 83.716,350.927 83.322,350.740 83.437 C 350.553 83.553,350.400 83.406,350.400 83.112 C 350.400 82.817,350.040 82.317,349.600 82.000 C 349.160 81.683,348.800 81.238,348.800 81.012 C 348.799 80.785,348.349 80.077,347.800 79.438 C 347.216 78.759,346.796 78.509,346.791 78.838 C 346.786 79.147,346.504 78.837,346.165 78.150 C 345.826 77.462,345.155 76.709,344.674 76.477 C 344.193 76.244,344.038 76.042,344.329 76.027 C 344.996 75.993,343.903 74.800,343.205 74.800 C 342.956 74.800,342.835 74.665,342.934 74.500 C 343.171 74.109,342.160 73.174,341.843 73.491 C 341.709 73.624,341.600 73.428,341.600 73.054 C 341.600 72.681,341.330 72.271,341.000 72.145 C 340.670 72.018,340.400 71.750,340.400 71.550 C 340.400 71.112,335.345 66.000,334.912 66.000 C 334.745 66.000,300.677 99.929,259.204 141.398 M276.912 237.372 C 289.367 241.263,297.691 255.947,293.978 267.478 C 289.280 282.068,276.394 289.473,262.600 285.510 C 237.233 278.221,239.493 241.398,265.600 236.636 C 267.504 236.289,275.008 236.777,276.912 237.372 " stroke="none" fill="#dc542b" fill-rule="evenodd"></path><path id="path1" d="M265.600 236.636 C 243.699 240.631,237.029 268.312,254.763 281.612 C 267.549 291.201,287.177 285.766,292.694 271.108 C 294.280 266.894,294.468 265.879,294.475 261.478 C 294.502 245.931,280.532 233.913,265.600 236.636 " stroke="none" fill="#199b7f" fill-rule="evenodd"></path><path id="path2" d="M225.800 107.401 C 225.580 107.503,223.420 107.764,221.000 107.981 C 218.580 108.198,215.700 108.571,214.600 108.810 C 213.500 109.049,212.013 109.344,211.296 109.466 C 210.579 109.588,209.894 109.849,209.773 110.044 C 209.652 110.240,209.201 110.400,208.771 110.400 C 208.341 110.400,207.677 110.565,207.295 110.766 C 206.913 110.968,205.880 111.438,205.000 111.810 C 197.835 114.843,191.505 119.907,186.573 126.551 C 182.680 131.796,182.800 131.960,182.800 121.371 L 182.800 112.788 181.500 111.996 C 179.645 110.864,146.161 110.755,143.818 111.872 C 141.838 112.816,141.960 106.927,142.086 195.535 L 142.200 276.071 143.158 276.847 C 144.535 277.961,181.007 277.851,182.129 276.729 C 182.749 276.108,182.800 272.750,182.800 232.729 C 182.801 186.917,182.915 183.433,184.647 176.400 C 185.559 172.700,188.982 164.687,189.940 164.011 C 190.104 163.895,190.678 163.170,191.215 162.400 C 200.687 148.814,228.428 142.873,240.821 151.777 C 243.335 153.583,243.082 153.638,245.789 150.700 C 247.055 149.325,250.096 146.115,252.546 143.567 C 254.996 141.020,259.880 135.903,263.400 132.198 C 266.920 128.492,270.205 125.050,270.700 124.548 C 271.982 123.249,271.900 123.074,268.900 120.678 C 263.370 116.261,256.484 112.452,251.000 110.778 C 250.120 110.509,249.040 110.148,248.600 109.975 C 248.160 109.802,247.260 109.547,246.600 109.409 C 245.940 109.270,244.590 108.981,243.600 108.765 C 239.330 107.836,226.915 106.885,225.800 107.401 " stroke="none" fill="#fbfbfa" fill-rule="evenodd"></path><path id="path3" d="M183.355 10.795 C 183.160 10.984,181.470 11.234,179.600 11.350 C 177.730 11.466,175.030 11.743,173.600 11.965 C 169.877 12.544,166.139 13.167,163.600 13.630 C 162.390 13.851,160.724 14.133,159.897 14.258 C 159.071 14.383,158.295 14.645,158.174 14.842 C 158.052 15.039,157.254 15.200,156.400 15.200 C 155.546 15.200,154.736 15.380,154.600 15.600 C 154.464 15.820,153.744 16.000,153.000 16.000 C 152.256 16.000,151.536 16.180,151.400 16.400 C 151.264 16.620,150.724 16.800,150.200 16.800 C 149.676 16.800,149.136 16.980,149.000 17.200 C 148.864 17.420,148.133 17.600,147.376 17.600 C 146.619 17.600,146.000 17.780,146.000 18.000 C 146.000 18.220,145.471 18.400,144.824 18.400 C 144.177 18.400,143.536 18.580,143.400 18.800 C 143.264 19.020,142.713 19.200,142.176 19.200 C 141.639 19.200,141.200 19.380,141.200 19.600 C 141.200 19.820,140.660 20.000,140.000 20.000 C 139.340 20.000,138.800 20.180,138.800 20.400 C 138.800 20.620,138.260 20.800,137.600 20.800 C 136.940 20.800,136.400 20.980,136.400 21.200 C 136.400 21.420,135.961 21.600,135.424 21.600 C 134.887 21.600,134.336 21.780,134.200 22.000 C 134.064 22.220,133.513 22.400,132.976 22.400 C 132.439 22.400,132.000 22.580,132.000 22.800 C 132.000 23.020,131.640 23.200,131.200 23.200 C 130.760 23.200,130.400 23.380,130.400 23.600 C 130.400 23.820,130.038 24.000,129.595 24.000 C 129.152 24.000,128.477 24.162,128.095 24.359 C 127.277 24.781,123.921 26.185,123.613 26.234 C 122.568 26.398,108.665 33.251,108.467 33.699 C 108.393 33.865,108.078 34.000,107.767 34.000 C 107.455 34.000,107.200 34.180,107.200 34.400 C 107.200 34.620,106.930 34.800,106.600 34.800 C 106.270 34.800,105.999 34.935,105.997 35.100 C 105.994 35.411,104.097 36.400,103.504 36.400 C 103.318 36.400,102.780 36.760,102.308 37.200 C 101.836 37.640,101.213 38.000,100.925 38.000 C 100.636 38.000,100.400 38.180,100.400 38.400 C 100.400 38.620,100.130 38.800,99.800 38.800 C 99.470 38.800,99.200 38.980,99.200 39.200 C 99.200 39.420,98.930 39.600,98.600 39.600 C 98.270 39.600,98.000 39.780,98.000 40.000 C 98.000 40.220,97.764 40.400,97.475 40.400 C 97.187 40.400,96.588 40.738,96.145 41.151 C 95.701 41.564,94.967 42.020,94.514 42.164 C 94.060 42.308,93.219 42.861,92.645 43.394 C 92.070 43.926,91.600 44.253,91.600 44.120 C 91.600 43.987,91.285 44.220,90.900 44.639 C 90.515 45.057,89.941 45.456,89.625 45.525 C 89.309 45.594,88.748 45.999,88.378 46.425 C 88.009 46.851,87.529 47.200,87.312 47.200 C 87.096 47.200,86.354 47.740,85.663 48.400 C 84.972 49.060,84.303 49.600,84.175 49.600 C 84.047 49.600,83.714 49.825,83.435 50.100 C 83.155 50.375,82.320 51.050,81.580 51.600 C 79.558 53.101,77.119 55.258,76.042 56.497 C 75.515 57.104,74.922 57.600,74.724 57.600 C 74.526 57.600,73.947 58.005,73.437 58.500 C 72.927 58.995,72.126 59.665,71.655 59.988 C 71.185 60.312,70.800 60.807,70.800 61.088 C 70.800 61.370,70.622 61.600,70.405 61.600 C 70.187 61.600,68.117 63.492,65.805 65.805 C 63.492 68.117,61.600 70.187,61.600 70.405 C 61.600 70.622,61.370 70.800,61.088 70.800 C 60.807 70.800,60.312 71.185,59.988 71.655 C 59.665 72.126,58.995 72.927,58.500 73.437 C 58.005 73.947,57.600 74.526,57.600 74.724 C 57.600 74.922,57.104 75.515,56.497 76.042 C 55.258 77.119,53.101 79.558,51.600 81.580 C 51.050 82.320,50.375 83.155,50.100 83.435 C 49.825 83.714,49.600 84.047,49.600 84.175 C 49.600 84.303,49.060 84.972,48.400 85.663 C 47.740 86.354,47.200 87.096,47.200 87.312 C 47.200 87.529,46.851 88.009,46.425 88.378 C 45.999 88.748,45.594 89.309,45.525 89.625 C 45.456 89.941,45.057 90.515,44.639 90.900 C 44.220 91.285,43.987 91.600,44.120 91.600 C 44.253 91.600,43.926 92.070,43.394 92.645 C 42.861 93.219,42.308 94.060,42.164 94.514 C 42.020 94.967,41.564 95.701,41.151 96.145 C 40.738 96.588,40.400 97.187,40.400 97.475 C 40.400 97.764,40.220 98.000,40.000 98.000 C 39.780 98.000,39.600 98.270,39.600 98.600 C 39.600 98.930,39.420 99.200,39.200 99.200 C 38.980 99.200,38.800 99.470,38.800 99.800 C 38.800 100.130,38.620 100.400,38.400 100.400 C 38.180 100.400,38.000 100.636,38.000 100.925 C 38.000 101.213,37.640 101.836,37.200 102.308 C 36.760 102.780,36.400 103.318,36.400 103.504 C 36.400 104.097,35.411 105.994,35.100 105.997 C 34.935 105.999,34.800 106.270,34.800 106.600 C 34.800 106.930,34.620 107.200,34.400 107.200 C 34.180 107.200,34.000 107.455,34.000 107.767 C 34.000 108.078,33.865 108.393,33.699 108.467 C 33.251 108.665,26.398 122.568,26.234 123.613 C 26.185 123.921,24.781 127.277,24.359 128.095 C 24.162 128.477,24.000 129.152,24.000 129.595 C 24.000 130.038,23.820 130.400,23.600 130.400 C 23.380 130.400,23.200 130.760,23.200 131.200 C 23.200 131.640,23.020 132.000,22.800 132.000 C 22.580 132.000,22.400 132.439,22.400 132.976 C 22.400 133.513,22.220 134.064,22.000 134.200 C 21.780 134.336,21.600 134.887,21.600 135.424 C 21.600 135.961,21.420 136.400,21.200 136.400 C 20.980 136.400,20.800 136.940,20.800 137.600 C 20.800 138.260,20.620 138.800,20.400 138.800 C 20.180 138.800,20.000 139.340,20.000 140.000 C 20.000 140.660,19.820 141.200,19.600 141.200 C 19.380 141.200,19.200 141.639,19.200 142.176 C 19.200 142.713,19.020 143.264,18.800 143.400 C 18.580 143.536,18.400 144.177,18.400 144.824 C 18.400 145.471,18.220 146.000,18.000 146.000 C 17.780 146.000,17.600 146.619,17.600 147.376 C 17.600 148.133,17.420 148.864,17.200 149.000 C 16.980 149.136,16.800 149.676,16.800 150.200 C 16.800 150.724,16.620 151.264,16.400 151.400 C 16.180 151.536,16.000 152.256,16.000 153.000 C 16.000 153.744,15.820 154.464,15.600 154.600 C 15.380 154.736,15.200 155.546,15.200 156.400 C 15.200 157.254,15.039 158.052,14.842 158.174 C 14.645 158.295,14.383 159.071,14.258 159.897 C 14.133 160.724,13.851 162.390,13.630 163.600 C 13.167 166.139,12.544 169.877,11.965 173.600 C 11.743 175.030,11.464 177.730,11.346 179.600 C 11.227 181.470,10.978 183.184,10.791 183.410 C 10.325 183.973,10.365 217.131,10.832 217.420 C 11.034 217.545,11.200 219.156,11.200 221.000 C 11.200 222.844,11.380 224.464,11.600 224.600 C 11.820 224.736,12.000 225.527,12.000 226.357 C 12.000 227.842,12.454 230.858,13.212 234.400 C 13.423 235.390,13.637 236.799,13.686 237.530 C 13.735 238.262,13.915 238.948,14.087 239.054 C 14.259 239.160,14.400 239.809,14.400 240.495 C 14.400 241.182,14.568 242.296,14.773 242.972 C 14.978 243.647,15.338 244.965,15.573 245.900 C 16.621 250.070,16.900 251.043,17.239 251.695 C 17.438 252.077,17.600 252.921,17.600 253.571 C 17.600 254.221,17.780 254.864,18.000 255.000 C 18.220 255.136,18.400 255.687,18.400 256.224 C 18.400 256.761,18.580 257.200,18.800 257.200 C 19.020 257.200,19.200 257.740,19.200 258.400 C 19.200 259.060,19.380 259.600,19.600 259.600 C 19.820 259.600,20.000 260.140,20.000 260.800 C 20.000 261.460,20.180 262.000,20.400 262.000 C 20.620 262.000,20.800 262.540,20.800 263.200 C 20.800 263.860,20.980 264.400,21.200 264.400 C 21.420 264.400,21.600 264.839,21.600 265.376 C 21.600 265.913,21.780 266.464,22.000 266.600 C 22.220 266.736,22.400 267.276,22.400 267.800 C 22.400 268.324,22.580 268.864,22.800 269.000 C 23.020 269.136,23.200 269.597,23.200 270.024 C 23.200 270.451,23.380 270.800,23.600 270.800 C 23.820 270.800,24.000 271.250,24.000 271.800 C 24.000 272.350,24.180 272.800,24.400 272.800 C 24.620 272.800,24.800 273.160,24.800 273.600 C 24.800 274.040,24.991 274.400,25.224 274.400 C 25.457 274.400,25.556 274.548,25.444 274.729 C 25.332 274.909,25.484 275.527,25.782 276.100 C 26.080 276.674,26.220 277.246,26.095 277.372 C 25.969 277.497,26.038 277.600,26.248 277.600 C 26.458 277.600,26.659 277.989,26.695 278.464 C 26.731 278.939,26.923 279.434,27.123 279.564 C 27.570 279.854,29.200 283.507,29.200 284.218 C 29.200 284.501,29.337 284.793,29.504 284.867 C 29.671 284.940,30.590 286.562,31.547 288.471 C 32.504 290.380,33.627 292.308,34.043 292.754 C 34.460 293.201,34.800 293.844,34.800 294.183 C 34.800 294.522,34.980 294.800,35.200 294.800 C 35.420 294.800,35.600 295.145,35.600 295.567 C 35.600 295.988,35.766 296.393,35.970 296.467 C 36.173 296.540,36.398 296.870,36.470 297.200 C 36.541 297.530,36.699 297.890,36.819 298.000 C 37.461 298.586,38.800 300.798,38.800 301.273 C 38.800 301.576,39.160 302.083,39.600 302.400 C 40.040 302.717,40.400 303.124,40.400 303.305 C 40.400 303.486,40.760 304.020,41.200 304.492 C 41.640 304.964,42.000 305.587,42.000 305.875 C 42.000 306.164,42.191 306.400,42.424 306.400 C 42.657 306.400,42.752 306.554,42.636 306.741 C 42.520 306.929,43.051 307.784,43.815 308.641 C 44.580 309.499,45.320 310.560,45.460 311.000 C 45.600 311.440,46.049 312.035,46.457 312.323 C 46.866 312.610,47.200 313.025,47.200 313.244 C 47.200 313.464,47.739 314.219,48.398 314.922 C 49.057 315.625,49.597 316.425,49.598 316.700 C 49.599 316.975,49.780 317.200,50.000 317.200 C 50.220 317.200,50.400 317.404,50.400 317.653 C 50.400 317.902,50.730 318.397,51.134 318.753 C 51.538 319.109,52.509 320.244,53.292 321.275 C 54.075 322.307,54.825 323.042,54.958 322.909 C 55.091 322.776,55.202 322.922,55.204 323.233 C 55.206 323.545,55.746 324.225,56.404 324.745 C 57.062 325.265,57.600 325.856,57.600 326.059 C 57.600 326.262,58.005 326.875,58.500 327.421 C 59.910 328.975,65.609 334.800,65.719 334.800 C 65.774 334.800,82.734 317.877,103.409 297.194 L 141.000 259.588 141.213 267.694 C 141.329 272.152,141.464 239.201,141.513 194.469 L 141.600 113.138 142.769 111.969 L 143.938 110.800 162.383 110.800 C 185.672 110.800,183.299 109.614,183.597 121.400 L 183.800 129.400 186.135 126.300 C 193.740 116.206,203.593 110.139,215.800 108.034 C 236.703 104.430,256.321 109.075,270.079 120.886 C 272.634 123.080,272.651 123.298,270.441 125.563 C 269.648 126.375,267.470 128.651,265.600 130.620 C 263.730 132.589,258.861 137.710,254.780 142.000 C 250.698 146.290,246.467 150.756,245.378 151.923 L 243.396 154.047 240.998 152.522 C 235.696 149.150,233.990 148.693,225.962 148.490 C 204.644 147.950,189.973 157.983,185.150 176.400 C 183.827 181.453,183.614 184.820,183.607 200.800 L 183.600 217.000 259.200 141.403 C 300.780 99.825,334.800 65.765,334.800 65.713 C 334.800 65.607,328.930 59.869,327.421 58.500 C 326.875 58.005,326.262 57.600,326.059 57.600 C 325.856 57.600,325.265 57.062,324.745 56.404 C 324.225 55.746,323.545 55.206,323.233 55.204 C 322.922 55.202,322.776 55.091,322.909 54.958 C 323.042 54.825,322.307 54.075,321.275 53.292 C 320.244 52.509,319.109 51.538,318.753 51.134 C 318.397 50.730,317.902 50.400,317.653 50.400 C 317.404 50.400,317.200 50.220,317.200 50.000 C 317.200 49.780,316.975 49.599,316.700 49.598 C 316.425 49.597,315.625 49.057,314.922 48.398 C 314.219 47.739,313.464 47.200,313.244 47.200 C 313.025 47.200,312.610 46.866,312.323 46.457 C 312.035 46.049,311.440 45.600,311.000 45.460 C 310.560 45.320,309.499 44.580,308.641 43.815 C 307.784 43.051,306.929 42.520,306.741 42.636 C 306.554 42.752,306.400 42.657,306.400 42.424 C 306.400 42.191,306.164 42.000,305.875 42.000 C 305.587 42.000,304.964 41.640,304.492 41.200 C 304.020 40.760,303.486 40.400,303.305 40.400 C 303.124 40.400,302.717 40.040,302.400 39.600 C 302.083 39.160,301.576 38.800,301.273 38.800 C 300.798 38.800,298.586 37.461,298.000 36.819 C 297.890 36.699,297.530 36.541,297.200 36.470 C 296.870 36.398,296.540 36.173,296.467 35.970 C 296.393 35.766,295.988 35.600,295.567 35.600 C 295.145 35.600,294.800 35.420,294.800 35.200 C 294.800 34.980,294.522 34.800,294.183 34.800 C 293.844 34.800,293.201 34.460,292.754 34.043 C 292.308 33.627,290.380 32.504,288.471 31.547 C 286.562 30.590,284.940 29.671,284.867 29.504 C 284.793 29.337,284.501 29.200,284.218 29.200 C 283.507 29.200,279.854 27.570,279.564 27.123 C 279.434 26.923,278.939 26.731,278.464 26.695 C 277.989 26.659,277.600 26.458,277.600 26.248 C 277.600 26.038,277.497 25.969,277.372 26.095 C 277.246 26.220,276.674 26.080,276.100 25.782 C 275.527 25.484,274.909 25.332,274.729 25.444 C 274.548 25.556,274.400 25.457,274.400 25.224 C 274.400 24.991,274.040 24.800,273.600 24.800 C 273.160 24.800,272.800 24.620,272.800 24.400 C 272.800 24.180,272.350 24.000,271.800 24.000 C 271.250 24.000,270.800 23.820,270.800 23.600 C 270.800 23.380,270.451 23.200,270.024 23.200 C 269.597 23.200,269.136 23.020,269.000 22.800 C 268.864 22.580,268.324 22.400,267.800 22.400 C 267.276 22.400,266.736 22.220,266.600 22.000 C 266.464 21.780,265.913 21.600,265.376 21.600 C 264.839 21.600,264.400 21.420,264.400 21.200 C 264.400 20.980,263.860 20.800,263.200 20.800 C 262.540 20.800,262.000 20.620,262.000 20.400 C 262.000 20.180,261.460 20.000,260.800 20.000 C 260.140 20.000,259.600 19.820,259.600 19.600 C 259.600 19.380,259.060 19.200,258.400 19.200 C 257.740 19.200,257.200 19.020,257.200 18.800 C 257.200 18.580,256.761 18.400,256.224 18.400 C 255.687 18.400,255.136 18.220,255.000 18.000 C 254.864 17.780,254.221 17.600,253.571 17.600 C 252.921 17.600,252.077 17.438,251.695 17.239 C 251.043 16.900,250.070 16.621,245.900 15.573 C 244.965 15.338,243.647 14.978,242.972 14.773 C 242.296 14.568,241.182 14.400,240.495 14.400 C 239.809 14.400,239.160 14.259,239.054 14.087 C 238.948 13.915,238.262 13.735,237.530 13.686 C 236.799 13.637,235.390 13.423,234.400 13.212 C 230.858 12.454,227.842 12.000,226.357 12.000 C 225.527 12.000,224.736 11.820,224.600 11.600 C 224.464 11.380,222.844 11.200,221.000 11.200 C 219.156 11.200,217.545 11.034,217.420 10.832 C 217.129 10.362,183.839 10.325,183.355 10.795 " stroke="none" fill="#f46424" fill-rule="evenodd"></path><path id="path4" d="M221.200 107.233 C 204.770 109.347,194.839 114.747,186.135 126.300 L 183.800 129.400 183.597 121.400 C 183.299 109.614,185.672 110.800,162.383 110.800 L 143.938 110.800 142.769 111.969 L 141.600 113.138 141.600 194.396 C 141.600 281.757,141.470 276.852,143.819 277.834 C 145.880 278.695,179.525 278.666,181.196 277.802 C 183.775 276.468,183.599 279.950,183.607 230.011 C 183.614 183.390,183.651 182.126,185.150 176.400 C 189.973 157.983,204.644 147.950,225.962 148.490 C 233.990 148.693,235.696 149.150,240.998 152.522 L 243.396 154.047 245.378 151.923 C 246.467 150.756,250.698 146.290,254.780 142.000 C 258.861 137.710,263.730 132.589,265.600 130.620 C 267.470 128.651,269.648 126.375,270.441 125.563 C 272.651 123.298,272.634 123.080,270.079 120.886 C 263.223 115.000,253.357 110.231,243.800 108.182 C 237.939 106.926,227.120 106.472,221.200 107.233 M238.800 107.985 C 240.450 108.199,242.610 108.550,243.600 108.765 C 244.590 108.981,245.940 109.270,246.600 109.409 C 247.260 109.547,248.160 109.802,248.600 109.975 C 249.040 110.148,250.120 110.509,251.000 110.778 C 256.484 112.452,263.370 116.261,268.900 120.678 C 271.900 123.074,271.982 123.249,270.700 124.548 C 270.205 125.050,266.920 128.492,263.400 132.198 C 259.880 135.903,254.996 141.020,252.546 143.567 C 250.096 146.115,247.055 149.325,245.789 150.700 C 243.082 153.638,243.335 153.583,240.821 151.777 C 228.428 142.873,200.687 148.814,191.215 162.400 C 190.678 163.170,190.104 163.895,189.940 164.011 C 188.982 164.687,185.559 172.700,184.647 176.400 C 182.915 183.433,182.801 186.917,182.800 232.729 C 182.800 272.750,182.749 276.108,182.129 276.729 C 181.007 277.851,144.535 277.961,143.158 276.847 L 142.200 276.071 142.086 195.535 C 141.960 106.927,141.838 112.816,143.818 111.872 C 146.161 110.755,179.645 110.864,181.500 111.996 L 182.800 112.788 182.800 121.371 C 182.800 131.960,182.680 131.796,186.573 126.551 C 191.505 119.907,197.835 114.843,205.000 111.810 C 205.880 111.438,206.913 110.968,207.295 110.766 C 207.677 110.565,208.341 110.400,208.771 110.400 C 209.201 110.400,209.652 110.240,209.773 110.044 C 209.894 109.849,210.579 109.588,211.296 109.466 C 212.013 109.344,213.500 109.049,214.600 108.810 C 215.700 108.571,218.580 108.198,221.000 107.981 C 223.420 107.764,225.580 107.503,225.800 107.401 C 226.384 107.131,235.305 107.531,238.800 107.985 " stroke="none" fill="#f4bcb2" fill-rule="evenodd"></path></g></svg>